<?xml version="1.0" standalone="no"?>
<!DOCTYPE svg PUBLIC "-//W3C//DTD SVG 20010904//EN"
 "http://www.w3.org/TR/2001/REC-SVG-20010904/DTD/svg10.dtd">
<svg version="1.0" xmlns="http://www.w3.org/2000/svg"
 width="60.000000pt" height="60.000000pt" viewBox="0 0 1000.000000 1000.000000"
 preserveAspectRatio="xMidYMid meet">
<metadata>
Created by potrace 1.16, written by Peter Selinger 2001-2019
</metadata>
<g transform="translate(0.000000,1000.000000) scale(0.10000,-0.100000)"
fill="#000000" stroke="none">
<path d="M4518 8966 c-81 -22 -178 -99 -204 -163 -28 -66 -8 -220 32 -254 25
-21 15 -24 -68 -21 -66 3 -95 -1 -140 -18 -70 -26 -129 -89 -148 -155 -12 -43
-10 -150 4 -200 5 -16 -7 -30 -55 -65 -129 -95 -276 -255 -382 -415 -340 -517
-374 -1217 -86 -1754 237 -442 617 -738 1105 -861 l41 -10 16 -99 c30 -184
106 -316 217 -374 72 -38 156 -36 217 5 l40 26 18 -56 c49 -158 128 -242 227
-242 27 0 64 6 82 14 l33 14 27 -57 c27 -56 27 -57 24 -256 l-3 -200 -75 115
c-42 63 -123 188 -180 278 l-104 162 -168 0 -168 0 -1 -502 c0 -277 -2 -522
-5 -545 l-5 -43 80 0 81 0 0 395 c0 217 4 395 9 395 8 0 56 -71 341 -517 l175
-273 87 0 88 0 2 427 3 427 34 7 c49 10 83 39 111 95 21 42 25 63 25 142 l0
92 38 0 c42 0 101 22 131 48 37 33 66 112 66 184 l0 66 30 -11 c25 -9 36 -8
63 6 43 23 84 88 93 143 18 124 -58 318 -176 447 -27 30 -50 59 -50 65 0 5 26
34 58 63 226 211 396 503 477 821 155 613 -42 1277 -505 1699 l-83 75 13 40
c8 21 13 73 13 114 -2 171 -115 347 -327 505 -124 93 -207 125 -324 125 -112
0 -174 -34 -229 -128 l-25 -43 -72 69 c-84 81 -145 124 -229 162 -109 49 -199
60 -289 36z m369 -198 c66 -40 135 -108 170 -166 29 -49 22 -67 -21 -56 -29 7
-57 38 -119 133 -33 51 -55 72 -102 99 -60 34 -60 34 -21 28 21 -3 63 -20 93
-38z m885 -266 c25 -27 54 -64 64 -83 24 -45 26 -152 3 -175 -19 -18 -21 -13
-34 87 -7 58 -52 152 -99 207 -20 24 -36 46 -36 49 0 10 58 -38 102 -85z
m-603 -387 c48 -46 92 -128 157 -295 41 -105 49 -119 52 -92 2 17 -6 66 -17
107 -12 41 -21 77 -21 80 0 13 59 3 71 -12 8 -9 16 -46 20 -82 l5 -66 41 86
c50 103 80 131 137 127 33 -2 43 -9 59 -36 10 -17 21 -60 24 -95 6 -61 6 -62
-14 -45 -52 47 -135 14 -169 -68 -47 -111 -18 -387 52 -490 14 -20 24 -38 22
-39 -3 -3 -317 -55 -331 -55 -4 0 3 17 16 38 108 172 90 440 -38 568 -43 43
-60 54 -100 59 -133 20 -244 -93 -275 -283 -13 -79 -8 -140 21 -240 10 -36 17
-68 14 -70 -2 -3 -20 5 -40 17 -20 11 -38 21 -41 21 -14 0 37 -67 80 -106 l48
-44 -41 0 c-51 0 -101 24 -208 102 -123 88 -180 111 -261 106 -54 -4 -72 -1
-94 14 -34 23 -267 118 -291 118 -21 0 -18 15 21 100 104 223 291 393 503 458
74 23 209 39 209 26 0 -5 -9 -42 -20 -83 -19 -70 -28 -223 -13 -207 4 3 17 43
30 89 44 155 131 299 197 328 11 5 51 8 88 6 64 -2 70 -5 107 -42z m760 -184
c181 -152 341 -374 431 -599 235 -585 109 -1239 -326 -1690 l-103 -106 -43 48
c-48 55 -97 118 -98 126 0 3 14 11 30 18 48 22 138 109 150 147 13 40 15 98 5
146 -9 45 -60 136 -98 176 -28 30 -29 33 -11 39 62 22 186 86 230 120 133 102
194 175 224 270 37 121 23 239 -42 366 -48 93 -104 159 -166 196 -46 26 -51
27 -200 27 -132 0 -152 2 -146 15 80 195 83 313 13 454 -25 51 -29 71 -29 141
0 69 -4 88 -23 116 l-23 34 89 -2 c87 -2 89 -3 136 -42z m-2135 -247 c-63
-198 -39 -476 50 -581 20 -22 47 -44 61 -47 31 -8 34 -44 5 -69 -12 -10 -20
-29 -20 -49 0 -26 10 -42 53 -83 29 -27 58 -63 65 -79 25 -58 101 -164 200
-281 264 -309 358 -503 322 -664 -29 -133 -139 -287 -283 -398 -42 -33 -64
-43 -80 -39 -27 7 -175 117 -251 187 -171 156 -334 411 -409 640 -132 400 -99
850 91 1224 56 112 192 312 213 314 4 1 -4 -33 -17 -75z m1349 62 c173 -72
199 -454 40 -585 -20 -17 -38 -29 -40 -27 -2 2 9 25 24 52 37 65 40 176 6 241
-45 83 -106 105 -164 56 -38 -33 -60 -80 -69 -153 l-6 -55 -13 45 c-19 67 -10
221 18 292 24 63 68 113 116 134 39 17 49 17 88 0z m540 -20 c55 -51 98 -175
98 -285 1 -108 -28 -178 -83 -207 l-29 -15 18 33 c21 40 23 153 4 211 -18 53
-58 97 -87 97 -14 0 -36 -12 -49 -26 l-25 -27 0 50 c0 55 20 131 44 168 22 33
74 34 109 1z m-1584 -333 c173 -70 301 -135 301 -155 0 -26 -10 -23 -113 28
-50 26 -139 64 -196 86 -131 49 -142 55 -135 73 7 18 29 14 143 -32z m-8 -82
c46 -15 108 -38 137 -51 l53 -23 -19 -21 c-26 -28 -43 -63 -53 -104 -9 -40 5
-152 26 -216 9 -26 15 -49 13 -51 -2 -1 -28 9 -58 24 -30 14 -85 39 -122 54
l-66 29 -13 71 c-14 86 -3 317 15 317 1 0 40 -13 87 -29z m414 -127 c126 -87
230 -120 409 -130 98 -5 141 -1 376 35 407 64 465 71 608 78 136 6 182 -2 182
-34 0 -7 6 -13 14 -13 29 0 176 -180 176 -216 0 -29 -333 -99 -589 -124 -349
-34 -759 22 -996 137 -27 13 -41 17 -31 9 56 -45 274 -115 461 -149 105 -19
157 -21 410 -22 238 0 307 3 385 18 122 23 280 63 331 84 22 8 42 13 46 10 12
-12 5 -203 -9 -236 -13 -33 -17 -35 -143 -67 -305 -78 -565 -110 -825 -101
-258 9 -481 56 -660 138 -47 21 -76 32 -65 23 37 -30 179 -92 270 -118 147
-42 274 -58 505 -63 297 -7 552 25 782 97 51 16 94 28 95 26 2 -2 -15 -24 -37
-49 -35 -39 -57 -52 -147 -87 -224 -86 -445 -126 -641 -116 -238 13 -449 69
-790 211 -35 14 -68 25 -74 23 -29 -10 359 -150 552 -199 129 -33 180 -41 305
-48 83 -4 188 -4 235 1 92 10 289 56 373 88 l52 20 -25 -21 c-39 -34 -176 -95
-270 -121 -75 -20 -107 -23 -265 -22 -159 0 -192 3 -285 26 -104 26 -248 75
-410 141 -47 18 -128 51 -180 71 -52 21 -110 45 -129 54 -37 18 -75 73 -105
154 -17 44 -17 49 0 120 14 54 19 115 19 238 1 91 2 171 3 178 2 15 3 15 87
-44z m-146 17 c12 -8 13 -35 7 -158 -4 -81 -11 -166 -15 -188 l-7 -40 -39 79
c-36 72 -40 87 -40 156 0 77 9 103 50 144 19 18 24 19 44 7z m-248 -326 c252
-107 251 -106 245 -130 -3 -11 -6 -25 -6 -31 0 -13 -390 163 -402 181 -10 14
-10 45 1 45 4 0 77 -29 162 -65z m51 -129 c200 -83 208 -88 249 -166 21 -40
39 -74 42 -76 2 -3 62 -24 133 -48 71 -25 177 -67 236 -95 59 -28 164 -70 233
-94 95 -32 124 -46 120 -57 -12 -40 -45 -258 -45 -301 0 -266 206 -458 424
-395 55 16 124 71 151 119 9 16 28 1 147 -117 76 -75 165 -172 198 -217 142
-192 176 -347 92 -424 -38 -35 -68 -32 -112 13 l-37 37 5 -102 c8 -169 -27
-241 -110 -230 -55 7 -94 41 -127 110 -36 74 -37 71 -11 -61 49 -250 10 -382
-113 -382 -52 0 -107 68 -141 174 -6 18 -9 17 -35 -8 -36 -35 -96 -44 -138
-22 -62 32 -132 152 -184 314 -24 75 -33 86 -44 52 -11 -34 -52 -76 -94 -95
-55 -24 -102 -10 -163 50 -73 72 -153 263 -176 419 l-7 49 -80 22 c-134 37
-309 109 -303 124 2 5 35 37 73 72 187 168 264 331 252 534 -10 178 -73 285
-362 615 -92 104 -165 199 -165 214 0 9 6 8 92 -28z m1638 -632 c57 -60 93
-151 70 -178 -7 -9 -18 -16 -26 -16 -21 0 -60 60 -89 135 -14 39 -35 85 -45
103 -11 18 -20 35 -20 38 0 13 67 -37 110 -82z"/>
<path d="M8133 4533 c-7 -2 -13 -13 -13 -24 0 -14 7 -19 30 -19 l30 0 0 -95
c0 -95 0 -95 25 -95 25 0 25 0 25 94 l0 95 33 3 c24 2 33 8 35 26 3 21 1 22
-75 21 -43 0 -84 -3 -90 -6z"/>
<path d="M8339 4518 c-1 -13 -4 -67 -8 -121 -6 -94 -5 -97 15 -97 20 0 22 7
29 93 7 85 9 89 17 52 22 -105 38 -145 57 -145 15 0 24 16 40 73 36 119 40
121 40 20 l1 -93 26 0 27 0 -7 112 c-4 62 -10 116 -12 120 -3 4 -18 8 -34 8
-26 0 -30 -5 -45 -57 -32 -116 -31 -114 -44 -63 -26 101 -34 115 -69 118 -27
3 -32 0 -33 -20z"/>
<path d="M7503 4410 c-195 -27 -378 -178 -444 -365 -45 -127 -44 -297 1 -417
48 -128 161 -256 275 -309 134 -64 308 -75 445 -29 171 57 321 216 366 391 22
83 22 234 0 318 -48 184 -203 343 -386 395 -72 20 -180 27 -257 16z m150 -131
c52 -14 102 -61 131 -124 52 -109 70 -322 41 -487 -18 -105 -43 -164 -89 -216
-76 -84 -220 -80 -294 8 -72 84 -112 342 -81 529 20 123 70 232 124 267 47 31
110 40 168 23z"/>
<path d="M4123 4395 c-77 -17 -175 -68 -210 -109 -14 -17 -38 -56 -52 -86
l-26 -55 0 -418 0 -419 24 -19 c32 -26 77 -24 106 6 25 24 25 25 25 220 l0
195 200 0 200 0 0 -212 0 -213 151 3 150 3 -3 417 -3 417 -29 62 c-31 69 -98
138 -164 172 -98 50 -241 64 -369 36z m176 -189 c70 -33 85 -73 89 -228 l4
-128 -202 0 -202 0 4 128 c3 95 8 136 21 163 45 91 173 120 286 65z"/>
<path d="M6205 4392 c-148 -44 -287 -159 -346 -287 -108 -229 -64 -516 103
-683 122 -122 264 -170 473 -159 165 9 300 52 424 136 l61 42 0 192 c0 171 -2
195 -19 221 -60 91 -197 88 -248 -6 -15 -27 -18 -63 -21 -203 -3 -138 -7 -173
-20 -188 -23 -26 -115 -49 -197 -50 -181 -1 -271 123 -282 389 -9 191 23 322
97 407 54 61 99 80 185 80 104 0 153 -31 255 -160 24 -31 39 -37 87 -34 60 3
82 89 40 152 -26 39 -137 117 -205 144 -70 27 -304 31 -387 7z"/>
<path d="M2104 4373 c-12 -2 -32 -15 -45 -29 l-24 -26 -3 -519 -3 -519 151 0
150 0 0 235 0 235 178 2 177 3 3 73 3 72 -181 0 -180 0 0 165 0 165 164 0
c150 0 165 2 190 21 19 15 26 30 26 54 0 24 -7 39 -26 54 -26 20 -38 21 -293
20 -146 -1 -276 -4 -287 -6z"/>
<path d="M2860 4364 c-51 -36 -49 -16 -50 -566 l0 -518 150 0 150 0 0 485 0
485 68 0 c87 0 134 -14 177 -52 66 -57 83 -197 34 -277 -26 -43 -94 -72 -186
-80 l-72 -6 95 -200 c52 -110 111 -235 131 -277 l36 -78 169 0 169 0 -17 33
c-9 17 -66 121 -126 229 -59 109 -108 202 -108 208 0 5 7 10 15 10 27 0 98 41
138 79 110 104 125 277 35 389 -35 43 -131 111 -188 132 -25 10 -113 15 -315
17 -255 4 -282 3 -305 -13z"/>
<path d="M3490 3059 c-139 -27 -230 -119 -260 -263 -34 -163 40 -276 244 -375
122 -59 176 -110 176 -167 0 -75 -47 -117 -129 -116 -54 1 -95 24 -133 77 -48
65 -109 73 -144 20 -30 -46 -22 -75 39 -131 81 -76 145 -98 277 -98 94 0 111
2 165 27 153 71 231 248 178 403 -28 81 -99 143 -245 212 -137 65 -178 101
-178 156 0 81 41 126 115 126 65 0 118 -32 164 -98 20 -28 28 -33 59 -30 24 2
41 11 55 30 17 23 18 31 8 57 -31 73 -143 151 -245 170 -67 12 -83 12 -146 0z"/>
<path d="M4293 3060 c-59 -12 -112 -42 -160 -92 -58 -59 -85 -126 -91 -219 -8
-144 54 -230 233 -320 170 -85 212 -133 185 -214 -17 -51 -53 -75 -112 -75
-63 0 -96 18 -148 80 -35 42 -47 50 -75 50 -25 0 -40 -8 -59 -31 -14 -17 -26
-38 -26 -47 0 -45 92 -129 182 -165 41 -16 75 -21 153 -21 91 0 106 3 165 30
109 52 171 131 189 245 18 108 -19 214 -96 279 -21 17 -93 58 -161 90 -151 73
-172 93 -172 167 0 47 4 59 29 84 25 25 37 29 83 29 64 0 118 -30 161 -91 33
-45 73 -53 107 -19 36 36 26 75 -33 135 -98 97 -215 132 -354 105z"/>
<path d="M5118 3055 c-83 -21 -151 -58 -192 -106 -62 -73 -64 -92 -68 -510 -3
-359 -2 -378 16 -398 28 -31 79 -28 105 5 19 25 21 40 21 200 l0 174 185 0
185 0 0 -195 0 -195 135 0 136 0 -3 398 -3 397 -27 51 c-36 68 -115 138 -186
164 -74 28 -224 36 -304 15z m169 -174 c61 -31 77 -72 81 -213 l4 -118 -186 0
-186 0 0 103 c0 115 11 165 43 202 48 56 162 68 244 26z"/>
<path d="M7216 3059 c-112 -27 -249 -128 -315 -234 -41 -64 -68 -155 -76 -247
-21 -236 123 -461 347 -543 59 -22 219 -30 291 -15 152 31 302 153 370 300 45
99 53 280 18 391 -53 166 -193 301 -356 344 -65 16 -216 19 -279 4z m232 -133
c81 -53 123 -179 125 -376 2 -274 -75 -420 -223 -420 -147 0 -223 141 -223
410 0 141 18 235 60 312 54 98 172 132 261 74z"/>
<path d="M2559 3046 c-68 -20 -148 -66 -176 -103 -13 -17 -33 -55 -44 -83 -18
-46 -19 -79 -19 -429 l0 -380 26 -20 c33 -26 55 -26 85 -2 23 19 24 24 27 205
l3 186 185 0 184 0 0 -195 0 -195 135 0 136 0 -3 398 -3 397 -30 54 c-36 64
-91 115 -165 149 -48 22 -71 26 -175 28 -77 2 -136 -1 -166 -10z m198 -172
c57 -42 68 -77 68 -207 l0 -119 -182 -3 -183 -4 0 110 c0 194 47 252 197 246
54 -2 79 -7 100 -23z"/>
<path d="M5793 3016 l-28 -24 -3 -482 -3 -483 293 6 c312 5 346 10 444 60 219
111 302 429 178 684 -51 107 -190 215 -318 249 -36 10 -120 14 -293 14 -241 0
-242 0 -270 -24z m471 -130 c110 -54 161 -156 161 -321 0 -131 -19 -212 -66
-285 -56 -86 -107 -113 -226 -118 l-93 -4 0 382 0 383 84 -5 c65 -3 96 -10
140 -32z"/>
</g>
</svg>
